<?xml version="1.0" standalone="no"?>
<!DOCTYPE svg PUBLIC "-//W3C//DTD SVG 20010904//EN"
 "http://www.w3.org/TR/2001/REC-SVG-20010904/DTD/svg10.dtd">
<svg version="1.0" xmlns="http://www.w3.org/2000/svg"
 width="840.000000pt" height="218.000000pt" viewBox="0 0 840.000000 218.000000"
 preserveAspectRatio="xMidYMid meet">

<g transform="translate(0.000000,218.000000) scale(0.100000,-0.100000)"
fill="#000000" stroke="none">
<path d="M815 1754 c-246 -36 -417 -140 -518 -314 -120 -208 -111 -483 23
-678 43 -62 123 -146 161 -168 125 -71 273 -114 397 -114 141 0 318 67 441
168 142 117 330 316 439 467 49 68 158 171 214 203 77 43 145 57 211 42 80
-18 83 -19 108 -40 77 -63 98 -108 99 -208 0 -88 -15 -128 -69 -180 -50 -49
-152 -79 -227 -67 -38 5 -49 3 -63 -12 -47 -51 -231 -275 -231 -281 1 -14 129
-62 210 -78 142 -28 304 -7 430 55 94 46 106 54 158 102 49 46 60 61 115 144
89 134 114 344 60 508 -15 45 -37 99 -50 119 -13 21 -23 40 -23 44 0 15 -79
99 -134 143 -81 64 -152 98 -256 123 -196 47 -370 14 -560 -107 -41 -26 -250
-219 -259 -239 -2 -5 -13 -18 -25 -30 -37 -36 -140 -160 -176 -211 -19 -28
-73 -87 -118 -133 -134 -135 -258 -178 -389 -137 -132 42 -191 157 -157 306
13 58 23 76 58 112 64 63 206 99 266 67 18 -10 39 9 138 131 6 8 23 28 38 44
50 57 94 112 94 118 0 12 -126 65 -193 81 -75 18 -166 27 -212 20z"/>
<path d="M3630 1507 c-36 -13 -74 -28 -85 -34 -30 -17 -72 -65 -84 -96 -14
-36 -14 -117 -1 -152 12 -32 70 -105 83 -105 5 0 21 -9 37 -20 15 -11 76 -37
136 -59 151 -56 187 -104 130 -176 -23 -28 -28 -30 -90 -29 -81 1 -114 21
-137 85 l-17 44 -88 0 -89 0 -3 -28 c-4 -36 33 -114 71 -150 16 -15 57 -42 91
-59 58 -30 67 -32 176 -32 110 -1 118 1 175 31 86 44 125 103 125 187 0 97
-52 175 -151 223 -52 26 -175 73 -190 73 -6 0 -26 12 -45 26 -28 22 -34 33
-34 64 0 33 5 41 34 59 21 14 50 21 81 21 40 0 52 -5 81 -34 19 -19 34 -41 34
-50 0 -14 15 -16 95 -16 93 0 95 0 95 24 0 13 -7 40 -15 60 -55 132 -256 201
-415 143z"/>
<path d="M7900 1381 l0 -70 -37 -3 -38 -3 -3 -62 -3 -62 38 -3 38 -3 6 -190
c3 -104 9 -199 13 -210 22 -58 123 -94 226 -80 l50 7 0 64 0 64 -33 0 c-18 0
-42 6 -53 14 -17 13 -19 27 -19 173 l0 158 53 3 52 3 0 60 0 59 -39 0 c-67 0
-71 4 -71 81 l0 69 -90 0 -90 0 0 -69z"/>
<path d="M4188 1303 c-16 -4 -18 -23 -18 -221 1 -201 2 -221 23 -271 14 -34
36 -65 60 -84 34 -28 44 -31 116 -31 74 -1 82 1 125 32 l46 33 0 -30 0 -31 90
0 90 0 -2 303 -3 302 -77 -1 c-42 -1 -84 -4 -92 -7 -14 -6 -16 -35 -16 -215 0
-238 -1 -240 -82 -249 -35 -4 -47 -1 -63 17 -18 20 -20 40 -25 239 l-5 216
-75 2 c-41 0 -83 -1 -92 -4z"/>
<path d="M4928 1302 l-78 -3 0 -419 0 -420 90 0 89 0 3 146 3 146 24 -21 c56
-48 165 -50 233 -4 105 72 145 256 93 430 -18 61 -89 137 -137 147 -79 16
-180 0 -192 -30 -8 -21 -36 -17 -36 5 0 26 -2 26 -92 23z m249 -140 c22 -14
43 -93 43 -163 0 -124 -41 -179 -123 -164 -57 11 -67 36 -67 173 0 105 2 121
20 140 16 17 32 22 68 22 26 0 52 -4 59 -8z"/>
<path d="M5669 1297 c-72 -27 -127 -85 -153 -162 -59 -174 -7 -332 135 -410
49 -27 63 -29 149 -29 102 0 157 18 214 71 29 27 27 34 -23 92 l-29 33 -35
-26 c-76 -58 -189 -41 -227 34 -11 21 -16 40 -13 44 4 3 89 6 190 6 l183 0 0
53 c-1 122 -44 219 -122 273 -36 26 -50 29 -137 31 -63 2 -108 -1 -132 -10z
m191 -159 c11 -18 20 -43 20 -55 0 -22 -3 -23 -95 -23 -89 0 -95 1 -95 20 0
26 26 77 42 83 7 3 34 6 61 6 43 1 49 -2 67 -31z"/>
<path d="M6183 1303 l-23 -4 0 -300 0 -299 90 0 90 0 0 186 c0 108 4 193 10
205 16 29 64 49 120 49 l50 0 0 85 0 85 -46 0 c-53 0 -81 -12 -111 -49 l-21
-26 -9 35 c-9 35 -9 35 -69 36 -32 1 -69 0 -81 -3z"/>
<path d="M6714 1290 c-22 -11 -56 -36 -75 -56 -32 -33 -34 -39 -34 -106 l0
-70 46 -42 c33 -30 66 -47 120 -64 41 -12 81 -22 90 -22 28 0 69 -40 69 -66 0
-18 -9 -29 -35 -41 -49 -23 -103 -9 -130 34 -20 32 -21 32 -102 33 -94 0 -97
-4 -64 -68 24 -46 53 -73 111 -103 38 -20 60 -24 142 -24 89 0 102 3 152 30
75 41 109 93 104 160 -6 69 -38 111 -113 146 -33 16 -69 29 -81 29 -65 0 -143
42 -144 78 0 23 48 62 77 62 31 0 83 -41 83 -65 0 -12 18 -15 91 -15 l92 0 -6
34 c-8 47 -43 93 -97 124 -40 24 -58 27 -150 30 -90 3 -111 0 -146 -18z"/>
<path d="M7386 1300 c-132 -42 -205 -197 -176 -371 10 -59 19 -79 54 -122 23
-28 65 -64 96 -81 51 -28 63 -30 150 -30 87 0 100 3 155 31 85 44 92 59 48
114 -19 24 -38 45 -42 47 -4 1 -20 -9 -36 -22 -32 -28 -96 -42 -144 -31 -41 9
-93 61 -89 89 3 20 8 21 186 24 l182 2 0 69 c0 113 -44 204 -123 257 -38 25
-52 28 -137 31 -52 1 -108 -2 -124 -7z m179 -155 c16 -15 25 -36 25 -55 l0
-30 -95 0 -95 0 0 29 c0 15 9 40 21 55 17 22 28 26 70 26 40 0 55 -5 74 -25z"/>
</g>
</svg>
