<?xml version="1.0" standalone="no"?>
<!DOCTYPE svg PUBLIC "-//W3C//DTD SVG 20010904//EN"
 "http://www.w3.org/TR/2001/REC-SVG-20010904/DTD/svg10.dtd">
<svg version="1.0" xmlns="http://www.w3.org/2000/svg"
 width="225.000000pt" height="225.000000pt" viewBox="0 0 225.000000 225.000000"
 preserveAspectRatio="xMidYMid meet">

<g transform="translate(0.000000,225.000000) scale(0.100000,-0.100000)"
fill="#000000" stroke="none">
<path d="M997 1449 c7 -7 15 -10 18 -7 3 3 -2 9 -12 12 -14 6 -15 5 -6 -5z"/>
<path d="M1041 1417 c9 -7 14 -18 12 -25 -3 -7 1 -10 9 -7 9 4 15 0 15 -10 0
-9 -6 -14 -13 -11 -10 4 -11 -1 -5 -18 6 -13 5 -29 -2 -42 -6 -10 -11 -32 -12
-49 -2 -29 -1 -29 42 20 23 27 43 55 43 61 0 13 -85 94 -97 94 -5 0 -1 -6 8
-13z m23 -157 c-6 -6 -10 -3 -10 10 0 13 4 16 10 10 7 -7 7 -13 0 -20z"/>
<path d="M1415 991 c3 -6 12 -11 18 -11 8 0 12 -17 12 -47 -1 -43 -3 -48 -23
-47 -19 1 -20 -1 -10 -13 11 -13 19 -8 55 33 47 52 48 50 -23 80 -20 8 -33 10
-29 5z m61 -48 c-10 -11 -19 -7 -22 10 -2 15 0 16 12 6 8 -6 12 -14 10 -16z"/>
</g>
</svg>
